# Blender v2.93.5 OBJ File: ''
# www.blender.org
mtllib testcoin.mtl
o Cylinder
v 0.494549 0.176691 -0.002167
v 0.462289 0.071760 0.136231
v 0.496229 0.073463 -0.003020
v 0.460609 0.174988 0.137084
v 0.386981 0.069526 0.258172
v 0.385301 0.172755 0.259025
v 0.277678 0.066981 0.350865
v 0.275998 0.170210 0.351718
v 0.145080 0.064374 0.405239
v 0.143400 0.167602 0.406092
v 0.002165 0.061959 0.415970
v 0.000484 0.165187 0.416823
v -0.137077 0.059973 0.382007
v -0.138758 0.163202 0.382860
v -0.259016 0.058611 0.306676
v -0.260696 0.161839 0.307529
v -0.351716 0.058006 0.197351
v -0.353396 0.161234 0.198203
v -0.406102 0.058216 0.064731
v -0.407782 0.161444 0.065584
v -0.416851 0.059222 -0.078200
v -0.418531 0.162450 -0.077347
v -0.382910 0.060925 -0.217451
v -0.384590 0.164154 -0.216598
v -0.307603 0.063159 -0.339391
v -0.309283 0.166387 -0.338538
v -0.198300 0.065704 -0.432085
v -0.199980 0.168932 -0.431232
v -0.065701 0.068311 -0.486459
v -0.067381 0.171539 -0.485606
v 0.077214 0.070726 -0.497190
v 0.075534 0.173954 -0.496337
v 0.216456 0.072712 -0.463227
v 0.214776 0.175940 -0.462374
v 0.338395 0.074074 -0.387896
v 0.336715 0.177302 -0.387042
v 0.431095 0.074679 -0.278570
v -0.129919 0.163520 0.361730
v 0.429414 0.177908 -0.277716
v 0.485480 0.074469 -0.145950
v 0.483800 0.177697 -0.145097
v -0.361780 0.061196 -0.208609
v -0.394024 0.059578 -0.076320
v -0.333826 0.161651 0.186305
v -0.385269 0.148109 0.060203
v -0.385493 0.161851 0.060317
v -0.363461 0.164424 -0.207756
v 0.073658 0.173735 -0.473508
v 0.205938 0.175621 -0.441243
v 0.264099 0.170178 0.332145
v 0.138130 0.167701 0.383800
v -0.188081 0.168964 -0.411659
v -0.062112 0.171441 -0.463314
v 0.409844 0.177491 -0.265819
v 0.461510 0.177291 -0.139830
v 0.439479 0.174717 0.128242
v 0.367936 0.172596 0.244085
v -0.245761 0.162226 0.290165
v -0.291918 0.166546 -0.323599
v 0.321780 0.176916 -0.369678
v 0.002361 0.165407 0.393994
v -0.395704 0.162807 -0.075467
v 0.471722 0.176335 -0.004047
v -0.061888 0.157699 -0.463427
v -0.129696 0.149778 0.361616
v 0.368160 0.158854 0.243972
v 0.322003 0.163174 -0.369792
v -0.395480 0.149065 -0.075581
v 0.264323 0.156436 0.332031
v 0.410068 0.163749 -0.265932
v -0.363237 0.150682 -0.207869
v 0.138354 0.153959 0.383686
v 0.461734 0.163549 -0.139944
v -0.291695 0.152804 -0.323713
v 0.002584 0.151665 0.393880
v 0.471946 0.162593 -0.004160
v -0.187857 0.155222 -0.411772
v -0.245538 0.148484 0.290052
v 0.073881 0.159993 -0.473621
v -0.333602 0.147909 0.186191
v 0.439702 0.160975 0.128129
v 0.206161 0.161880 -0.441357
v 0.265779 0.066949 0.331292
v 0.369393 0.083109 0.243346
v 0.369617 0.069367 0.243232
v 0.075338 0.070507 -0.474361
v -0.332145 0.058422 0.185452
v -0.186400 0.065735 -0.412512
v 0.411524 0.074263 -0.266672
v 0.441159 0.071489 0.127389
v -0.244081 0.058998 0.289312
v -0.128239 0.060292 0.360877
v -0.290238 0.063318 -0.324452
v 0.207618 0.072393 -0.442096
v 0.139810 0.064472 0.382947
v -0.383812 0.058622 0.059464
v -0.060431 0.068213 -0.464167
v 0.463191 0.074062 -0.140683
v 0.473402 0.073107 -0.004900
v 0.323460 0.073687 -0.370531
v 0.004041 0.062178 0.393141
v -0.244305 0.072739 0.289426
v 0.075114 0.084249 -0.474247
v 0.462967 0.087804 -0.140569
v 0.323236 0.087429 -0.370418
v -0.394247 0.073320 -0.076207
v 0.265555 0.080691 0.331406
v 0.411301 0.088004 -0.266558
v -0.362004 0.074938 -0.208495
v 0.139586 0.078214 0.383060
v -0.290462 0.077060 -0.324339
v 0.003817 0.075920 0.393254
v -0.186624 0.079477 -0.412398
v -0.128463 0.074034 0.360990
v -0.060655 0.081955 -0.464053
v 0.473178 0.086849 -0.004786
v -0.332369 0.072164 0.185566
v 0.440935 0.085231 0.127503
v 0.207394 0.086135 -0.441982
v -0.384036 0.072364 0.059577
vt 1.000000 1.000000
vt 0.950000 0.500000
vt 1.000000 0.500000
vt 0.950000 1.000000
vt 0.900000 0.500000
vt 0.900000 1.000000
vt 0.850000 0.500000
vt 0.850000 1.000000
vt 0.800000 0.500000
vt 0.800000 1.000000
vt 0.750000 0.500000
vt 0.750000 1.000000
vt 0.700000 0.500000
vt 0.700000 1.000000
vt 0.650000 0.500000
vt 0.650000 1.000000
vt 0.600000 0.500000
vt 0.600000 1.000000
vt 0.550000 0.500000
vt 0.550000 1.000000
vt 0.500000 0.500000
vt 0.500000 1.000000
vt 0.450000 0.500000
vt 0.450000 1.000000
vt 0.400000 0.500000
vt 0.400000 1.000000
vt 0.350000 0.500000
vt 0.350000 1.000000
vt 0.300000 0.500000
vt 0.300000 1.000000
vt 0.250000 0.500000
vt 0.250000 1.000000
vt 0.200000 0.500000
vt 0.200000 1.000000
vt 0.150000 0.500000
vt 0.150000 1.000000
vt 0.100000 0.500000
vt 0.700000 1.000000
vt 0.100000 1.000000
vt 0.050000 0.500000
vt 0.050000 1.000000
vt -0.000000 0.500000
vt 0.450000 0.500000
vt 0.500000 0.500000
vt 0.600000 1.000000
vt 0.550000 1.000000
vt 0.550000 1.000000
vt 0.450000 1.000000
vt 0.250000 1.000000
vt 0.200000 1.000000
vt 0.850000 1.000000
vt 0.800000 1.000000
vt 0.350000 1.000000
vt 0.300000 1.000000
vt 0.100000 1.000000
vt 0.050000 1.000000
vt 0.950000 1.000000
vt 0.900000 1.000000
vt 0.650000 1.000000
vt 0.400000 1.000000
vt 0.150000 1.000000
vt 0.750000 1.000000
vt 0.500000 1.000000
vt -0.000000 1.000000
vt -0.000000 1.000000
vt 1.000000 1.000000
vt 0.021746 0.175836
vt 0.478254 0.175836
vt 0.391068 0.444164
vt 0.900000 1.000000
vt 0.150000 1.000000
vt 0.500000 1.000000
vt 0.850000 1.000000
vt 0.100000 1.000000
vt 0.450000 1.000000
vt 0.800000 1.000000
vt 0.050000 1.000000
vt 0.400000 1.000000
vt 0.750000 1.000000
vt -0.000000 1.000000
vt 0.350000 1.000000
vt 0.700000 1.000000
vt 0.300000 1.000000
vt 0.650000 1.000000
vt 0.250000 1.000000
vt 0.600000 1.000000
vt 0.950000 1.000000
vt 0.200000 1.000000
vt 0.850000 0.500000
vt 0.900000 0.500000
vt 0.900000 0.500000
vt 0.250000 0.500000
vt 0.600000 0.500000
vt 0.350000 0.500000
vt 0.100000 0.500000
vt 0.950000 0.500000
vt 0.650000 0.500000
vt 0.700000 0.500000
vt 0.400000 0.500000
vt 0.200000 0.500000
vt 0.800000 0.500000
vt 0.550000 0.500000
vt 0.300000 0.500000
vt 0.050000 0.500000
vt 1.000000 0.500000
vt 0.150000 0.500000
vt 0.750000 0.500000
vt 0.944164 0.108932
vt 0.510000 0.250000
vt 0.675836 0.478254
vt 0.150000 0.500000
vt 0.500000 0.500000
vt 0.850000 0.500000
vt 0.100000 0.500000
vt 0.450000 0.500000
vt 0.800000 0.500000
vt -0.000000 0.500000
vt 0.050000 0.500000
vt 0.400000 0.500000
vt 0.750000 0.500000
vt 0.350000 0.500000
vt 0.700000 0.500000
vt 0.300000 0.500000
vt 0.650000 0.500000
vt 1.000000 0.500000
vt 0.250000 0.500000
vt 0.600000 0.500000
vt 0.950000 0.500000
vt 0.200000 0.500000
vt 0.550000 0.500000
vt 1.000000 1.000000
vt -0.000000 0.500000
vt 0.324164 0.478254
vt 0.250000 0.490000
vt 0.175836 0.478254
vt 0.108932 0.444164
vt 0.055836 0.391069
vt 0.021747 0.324164
vt 0.010000 0.250000
vt 0.055836 0.108932
vt 0.250000 0.010000
vt 0.108931 0.055836
vt 0.175836 0.021746
vt 0.324164 0.021746
vt 0.391068 0.055836
vt 0.444164 0.108932
vt 0.490000 0.250000
vt 0.478254 0.324164
vt 0.444164 0.391068
vt 0.750000 0.490000
vt 0.824164 0.478254
vt 0.891068 0.444164
vt 0.944164 0.391068
vt 0.978254 0.324164
vt 0.990000 0.250000
vt 0.978254 0.175836
vt 0.891068 0.055836
vt 0.675836 0.021746
vt 0.824164 0.021746
vt 0.750000 0.010000
vt 0.608931 0.055836
vt 0.555836 0.108932
vt 0.521746 0.175836
vt 0.521747 0.324164
vt 0.555836 0.391069
vt 0.608932 0.444164
vn 0.9714 0.0139 0.2369
vn 0.8507 0.0095 0.5255
vn 0.6467 0.0042 0.7627
vn 0.3794 -0.0015 0.9252
vn 0.0750 -0.0070 0.9972
vn -0.2368 -0.0119 0.9715
vn -0.5254 -0.0156 0.8507
vn -0.7626 -0.0178 0.6467
vn -0.9251 -0.0182 0.3793
vn -0.9971 -0.0168 0.0749
vn -0.9714 -0.0139 -0.2369
vn -0.8507 -0.0095 -0.5255
vn -0.6467 -0.0042 -0.7627
vn -0.3794 0.0015 -0.9252
vn -0.0750 0.0070 -0.9972
vn 0.2368 0.0119 -0.9715
vn 0.5254 0.0156 -0.8507
vn 0.7626 0.0178 -0.6467
vn -0.0163 0.9998 0.0083
vn 0.9251 0.0182 -0.3793
vn 0.9971 0.0168 -0.0749
vn 0.0163 -0.9998 -0.0083
vn -0.8507 -0.0095 -0.5256
vn 0.8507 0.0095 0.5256
vn 0.9714 0.0138 0.2369
vn -0.9971 -0.0169 0.0749
vn 0.9971 0.0169 -0.0749
vn -0.9714 -0.0138 -0.2369
usemtl Material.001
s 1
f 1/1/1 2/2/1 3/3/1
f 4/4/2 5/5/2 2/2/2
f 6/6/3 7/7/3 5/5/3
f 8/8/4 9/9/4 7/7/4
f 10/10/5 11/11/5 9/9/5
f 12/12/6 13/13/6 11/11/6
f 14/14/7 15/15/7 13/13/7
f 16/16/8 17/17/8 15/15/8
f 18/18/9 19/19/9 17/17/9
f 20/20/10 21/21/10 19/19/10
f 22/22/11 23/23/11 21/21/11
f 24/24/12 25/25/12 23/23/12
f 26/26/13 27/27/13 25/25/13
f 28/28/14 29/29/14 27/27/14
f 30/30/15 31/31/15 29/29/15
f 32/32/16 33/33/16 31/31/16
f 34/34/17 35/35/17 33/33/17
f 36/36/18 37/37/18 35/35/18
f 12/12/19 38/38/19 14/14/19
f 39/39/20 40/40/20 37/37/20
f 41/41/21 3/42/21 40/40/21
f 21/21/22 42/43/22 43/44/22
f 44/45/20 45/46/20 46/47/20
f 22/22/19 47/48/19 24/24/19
f 34/34/19 48/49/19 49/50/19
f 10/10/19 50/51/19 51/52/19
f 20/20/19 44/45/19 46/47/19
f 30/30/19 52/53/19 53/54/19
f 41/41/19 54/55/19 55/56/19
f 6/6/19 56/57/19 57/58/19
f 14/14/19 58/59/19 16/16/19
f 24/24/19 59/60/19 26/26/19
f 36/36/19 49/50/19 60/61/19
f 12/12/19 51/52/19 61/62/19
f 22/22/19 46/47/19 62/63/19
f 32/32/19 53/54/19 48/49/19
f 1/64/19 55/56/19 63/65/19
f 6/6/19 50/51/19 8/8/19
f 18/18/19 58/59/19 44/45/19
f 4/4/19 63/66/19 56/57/19
f 28/28/19 59/60/19 52/53/19
f 36/36/19 54/55/19 39/39/19
f 64/67/19 65/68/19 66/69/19
f 56/57/23 66/70/23 57/58/23
f 49/50/7 67/71/7 60/61/7
f 46/47/21 68/72/21 62/63/21
f 57/58/13 69/73/13 50/51/13
f 60/61/8 70/74/8 54/55/8
f 62/63/1 71/75/1 47/48/1
f 50/51/14 72/76/14 51/52/14
f 54/55/9 73/77/9 55/56/9
f 47/48/24 74/78/24 59/60/24
f 51/52/15 75/79/15 61/62/15
f 55/56/10 76/80/10 63/65/10
f 59/60/3 77/81/3 52/53/3
f 61/62/16 65/82/16 38/38/16
f 52/53/4 64/83/4 53/54/4
f 38/38/17 78/84/17 58/59/17
f 53/54/5 79/85/5 48/49/5
f 58/59/18 80/86/18 44/45/18
f 63/66/11 81/87/11 56/57/11
f 48/49/6 82/88/6 49/50/6
f 83/89/13 84/90/13 85/91/13
f 33/33/22 86/92/22 31/31/22
f 9/9/22 83/89/22 7/7/22
f 19/19/22 87/93/22 17/17/22
f 29/29/22 88/94/22 27/27/22
f 40/40/22 89/95/22 37/37/22
f 5/5/22 90/96/22 2/2/22
f 13/13/22 91/97/22 92/98/22
f 23/23/22 93/99/22 42/43/22
f 35/35/22 94/100/22 33/33/22
f 11/11/22 95/101/22 9/9/22
f 21/21/22 96/102/22 19/19/22
f 31/31/22 97/103/22 29/29/22
f 3/42/22 98/104/22 40/40/22
f 5/5/22 83/89/22 85/91/22
f 17/17/22 91/97/22 15/15/22
f 2/2/22 99/105/22 3/3/22
f 27/27/22 93/99/22 25/25/22
f 35/35/22 89/95/22 100/106/22
f 11/11/22 92/98/22 101/107/22
f 102/108/22 103/109/22 104/110/22
f 89/95/8 105/111/8 100/106/8
f 42/43/25 106/112/1 43/44/1
f 95/101/14 107/113/14 83/89/14
f 98/104/9 108/114/9 89/95/9
f 93/99/24 109/115/24 42/43/24
f 101/107/15 110/116/15 95/101/15
f 99/117/26 104/118/10 98/104/10
f 88/94/3 111/119/3 93/99/3
f 92/98/16 112/120/16 101/107/16
f 97/103/4 113/121/4 88/94/4
f 91/97/17 114/122/17 92/98/17
f 86/92/5 115/123/5 97/103/5
f 87/93/18 102/124/18 91/97/18
f 90/96/11 116/125/11 99/105/11
f 94/100/6 103/126/6 86/92/6
f 96/102/20 117/127/20 87/93/20
f 85/91/23 118/128/23 90/96/23
f 100/106/7 119/129/7 94/100/7
f 43/44/27 120/130/27 96/102/27
f 4/4/2 6/6/2 5/5/2
f 6/6/3 8/8/3 7/7/3
f 8/8/4 10/10/4 9/9/4
f 10/10/5 12/12/5 11/11/5
f 12/12/6 14/14/6 13/13/6
f 14/14/7 16/16/7 15/15/7
f 16/16/8 18/18/8 17/17/8
f 18/18/9 20/20/9 19/19/9
f 20/20/10 22/22/10 21/21/10
f 22/22/11 24/24/11 23/23/11
f 24/24/12 26/26/12 25/25/12
f 26/26/13 28/28/13 27/27/13
f 28/28/14 30/30/14 29/29/14
f 30/30/15 32/32/15 31/31/15
f 32/32/16 34/34/16 33/33/16
f 34/34/17 36/36/17 35/35/17
f 36/36/18 39/39/18 37/37/18
f 12/12/19 61/62/19 38/38/19
f 39/39/20 41/41/20 40/40/20
f 21/21/22 23/23/22 42/43/22
f 22/22/19 62/63/19 47/48/19
f 34/34/19 32/32/19 48/49/19
f 10/10/19 8/8/19 50/51/19
f 20/20/19 18/18/19 44/45/19
f 30/30/19 28/28/19 52/53/19
f 41/41/19 39/39/19 54/55/19
f 6/6/19 4/4/19 56/57/19
f 14/14/19 38/38/19 58/59/19
f 24/24/19 47/48/19 59/60/19
f 36/36/19 34/34/19 49/50/19
f 12/12/19 10/10/19 51/52/19
f 22/22/19 20/20/19 46/47/19
f 32/32/19 30/30/19 53/54/19
f 1/64/19 41/41/19 55/56/19
f 6/6/19 57/58/19 50/51/19
f 18/18/19 16/16/19 58/59/19
f 4/4/19 1/1/19 63/66/19
f 28/28/19 26/26/19 59/60/19
f 36/36/19 60/61/19 54/55/19
f 56/57/23 81/87/23 66/70/23
f 49/50/7 82/88/7 67/71/7
f 57/58/13 66/70/13 69/73/13
f 60/61/8 67/71/8 70/74/8
f 50/51/14 69/73/14 72/76/14
f 54/55/9 70/74/9 73/77/9
f 51/52/15 72/76/15 75/79/15
f 55/56/10 73/77/10 76/80/10
f 61/62/16 75/79/16 65/82/16
f 38/38/17 65/82/17 78/84/17
f 58/59/18 78/84/18 80/86/18
f 63/66/11 76/131/11 81/87/11
f 83/89/13 107/113/13 84/90/13
f 33/33/22 94/100/22 86/92/22
f 9/9/22 95/101/22 83/89/22
f 19/19/22 96/102/22 87/93/22
f 29/29/22 97/103/22 88/94/22
f 40/40/22 98/104/22 89/95/22
f 5/5/22 85/91/22 90/96/22
f 13/13/22 15/15/22 91/97/22
f 23/23/22 25/25/22 93/99/22
f 35/35/22 100/106/22 94/100/22
f 11/11/22 101/107/22 95/101/22
f 21/21/22 43/44/22 96/102/22
f 31/31/22 86/92/22 97/103/22
f 5/5/22 7/7/22 83/89/22
f 17/17/22 87/93/22 91/97/22
f 27/27/22 88/94/22 93/99/22
f 35/35/22 37/37/22 89/95/22
f 11/11/22 13/13/22 92/98/22
f 89/95/8 108/114/8 105/111/8
f 42/43/25 109/115/25 106/112/1
f 95/101/14 110/116/14 107/113/14
f 98/104/9 104/118/9 108/114/9
f 93/99/24 111/119/24 109/115/24
f 101/107/15 112/120/15 110/116/15
f 99/117/26 116/132/26 104/118/10
f 92/98/16 114/122/16 112/120/16
f 91/97/17 102/124/17 114/122/17
f 87/93/18 117/127/18 102/124/18
f 90/96/11 118/128/28 116/125/11
f 96/102/20 120/130/20 117/127/20
f 85/91/23 84/90/23 118/128/23
f 43/44/27 106/112/27 120/130/27
f 1/1/1 4/4/1 2/2/1
f 41/41/21 1/64/21 3/42/21
f 44/45/20 80/86/20 45/46/20
f 66/69/19 81/133/19 76/134/19
f 76/134/19 73/135/19 66/69/19
f 73/135/19 70/136/19 66/69/19
f 70/136/19 67/137/19 82/138/19
f 82/138/19 79/139/19 64/67/19
f 64/67/19 77/140/19 68/141/19
f 77/140/19 74/142/19 68/141/19
f 74/142/19 71/143/19 68/141/19
f 68/141/19 45/144/19 80/145/19
f 80/145/19 78/146/19 65/68/19
f 65/68/19 75/147/19 66/69/19
f 75/147/19 72/148/19 66/69/19
f 72/148/19 69/149/19 66/69/19
f 70/136/19 82/138/19 66/69/19
f 82/138/19 64/67/19 66/69/19
f 68/141/19 80/145/19 64/67/19
f 80/145/19 65/68/19 64/67/19
f 46/47/21 45/46/21 68/72/21
f 62/63/1 68/72/1 71/75/1
f 47/48/24 71/75/24 74/78/24
f 59/60/3 74/78/3 77/81/3
f 52/53/4 77/81/4 64/83/4
f 53/54/5 64/83/5 79/85/5
f 48/49/6 79/85/6 82/88/6
f 3/42/22 99/117/22 98/104/22
f 2/2/22 90/96/22 99/105/22
f 104/110/22 116/150/22 118/151/22
f 118/151/22 84/152/22 104/110/22
f 84/152/22 107/153/22 104/110/22
f 107/153/22 110/154/22 112/155/22
f 112/155/22 114/156/22 102/108/22
f 102/108/22 117/157/22 109/158/22
f 117/157/22 120/159/22 109/158/22
f 120/159/22 106/160/22 109/158/22
f 109/158/22 111/161/22 113/162/22
f 113/162/22 115/163/22 103/109/22
f 103/109/22 119/164/22 104/110/22
f 119/164/22 105/165/22 104/110/22
f 105/165/22 108/166/22 104/110/22
f 107/153/22 112/155/22 104/110/22
f 112/155/22 102/108/22 104/110/22
f 109/158/22 113/162/22 102/108/22
f 113/162/22 103/109/22 102/108/22
f 88/94/3 113/121/3 111/119/3
f 97/103/4 115/123/4 113/121/4
f 86/92/5 103/126/5 115/123/5
f 94/100/6 119/129/6 103/126/6
f 100/106/7 105/111/7 119/129/7
