# Blender v2.93.5 OBJ File: ''
# www.blender.org
mtllib testcoin.mtl
o Cylinder
v 0.494549 0.176691 -0.002167
v 0.462289 0.071760 0.136231
v 0.496229 0.073463 -0.003020
v 0.460609 0.174988 0.137084
v 0.386981 0.069526 0.258172
v 0.385301 0.172755 0.259025
v 0.277678 0.066981 0.350865
v 0.275998 0.170210 0.351718
v 0.145080 0.064374 0.405239
v 0.143400 0.167602 0.406092
v 0.002165 0.061959 0.415970
v 0.000484 0.165187 0.416823
v -0.137077 0.059973 0.382007
v -0.138758 0.163202 0.382860
v -0.259016 0.058611 0.306676
v -0.260696 0.161839 0.307529
v -0.351716 0.058006 0.197351
v -0.353396 0.161234 0.198203
v -0.406102 0.058216 0.064731
v -0.407782 0.161444 0.065584
v -0.416851 0.059222 -0.078200
v -0.418531 0.162450 -0.077347
v -0.382910 0.060925 -0.217451
v -0.384590 0.164154 -0.216598
v -0.307603 0.063159 -0.339391
v -0.309283 0.166387 -0.338538
v -0.198300 0.065704 -0.432085
v -0.199980 0.168932 -0.431232
v -0.065701 0.068311 -0.486459
v -0.067381 0.171539 -0.485606
v 0.077214 0.070726 -0.497190
v 0.075534 0.173954 -0.496337
v 0.216456 0.072712 -0.463227
v 0.214776 0.175940 -0.462374
v 0.338395 0.074074 -0.387896
v 0.336715 0.177302 -0.387042
v 0.431095 0.074679 -0.278570
v -0.129919 0.163520 0.361730
v 0.429414 0.177908 -0.277716
v 0.485480 0.074469 -0.145950
v 0.483800 0.177697 -0.145097
v -0.361780 0.061196 -0.208609
v -0.394024 0.059578 -0.076320
v -0.333826 0.161651 0.186305
v -0.385269 0.148109 0.060203
v -0.385493 0.161851 0.060317
v -0.363461 0.164424 -0.207756
v 0.073658 0.173735 -0.473508
v 0.205938 0.175621 -0.441243
v 0.264099 0.170178 0.332145
v 0.138130 0.167701 0.383800
v -0.188081 0.168964 -0.411659
v -0.062112 0.171441 -0.463314
v 0.409844 0.177491 -0.265819
v 0.461510 0.177291 -0.139830
v 0.439479 0.174717 0.128242
v 0.367936 0.172596 0.244085
v -0.245761 0.162226 0.290165
v -0.291918 0.166546 -0.323599
v 0.321780 0.176916 -0.369678
v 0.002361 0.165407 0.393994
v -0.395704 0.162807 -0.075467
v 0.471722 0.176335 -0.004047
v -0.061888 0.157699 -0.463427
v -0.129696 0.149778 0.361616
v 0.368160 0.158854 0.243972
v 0.322003 0.163174 -0.369792
v -0.395480 0.149065 -0.075581
v 0.264323 0.156436 0.332031
v 0.410068 0.163749 -0.265932
v -0.363237 0.150682 -0.207869
v 0.138354 0.153959 0.383686
v 0.461734 0.163549 -0.139944
v -0.291695 0.152804 -0.323713
v 0.002584 0.151665 0.393880
v 0.471946 0.162593 -0.004160
v -0.187857 0.155222 -0.411772
v -0.245538 0.148484 0.290052
v 0.073881 0.159993 -0.473621
v -0.333602 0.147909 0.186191
v 0.439702 0.160975 0.128129
v 0.206161 0.161880 -0.441357
v 0.265779 0.066949 0.331292
v 0.369393 0.083109 0.243346
v 0.369617 0.069367 0.243232
v 0.075338 0.070507 -0.474361
v -0.332145 0.058422 0.185452
v -0.186400 0.065735 -0.412512
v 0.411524 0.074263 -0.266672
v 0.441159 0.071489 0.127389
v -0.244081 0.058998 0.289312
v -0.128239 0.060292 0.360877
v -0.290238 0.063318 -0.324452
v 0.207618 0.072393 -0.442096
v 0.139810 0.064472 0.382947
v -0.383812 0.058622 0.059464
v -0.060431 0.068213 -0.464167
v 0.463191 0.074062 -0.140683
v 0.473402 0.073107 -0.004900
v 0.323460 0.073687 -0.370531
v 0.004041 0.062178 0.393141
v -0.244305 0.072739 0.289426
v 0.075114 0.084249 -0.474247
v 0.462967 0.087804 -0.140569
v 0.323236 0.087429 -0.370418
v -0.394247 0.073320 -0.076207
v 0.265555 0.080691 0.331406
v 0.411301 0.088004 -0.266558
v -0.362004 0.074938 -0.208495
v 0.139586 0.078214 0.383060
v -0.290462 0.077060 -0.324339
v 0.003817 0.075920 0.393254
v -0.186624 0.079477 -0.412398
v -0.128463 0.074034 0.360990
v -0.060655 0.081955 -0.464053
v 0.473178 0.086849 -0.004786
v -0.332369 0.072164 0.185566
v 0.440935 0.085231 0.127503
v 0.207394 0.086135 -0.441982
v -0.384036 0.072364 0.059577
vt 0.395226 0.407142
vt 0.479321 0.378352
vt 0.432831 0.444839
vt 0.431590 0.354086
vt 0.503193 0.300526
vt 0.450010 0.291677
vt 0.503193 0.218965
vt 0.449858 0.226171
vt 0.478625 0.141078
vt 0.430055 0.164078
vt 0.431384 0.074565
vt 0.392373 0.111298
vt 0.366013 0.026153
vt 0.340484 0.073009
vt 0.289086 0.000754
vt 0.279597 0.052995
vt 0.208466 0.000887
vt 0.215882 0.053196
vt 0.132400 0.026286
vt 0.156037 0.073323
vt 0.068458 0.074670
vt 0.105986 0.111692
vt 0.023194 0.141050
vt 0.070758 0.164414
vt 0.000754 0.218498
vt 0.053784 0.226578
vt 0.001326 0.299491
vt 0.054325 0.292113
vt 0.025827 0.376819
vt 0.074099 0.354118
vt 0.072320 0.442858
vt 0.111383 0.407008
vt 0.135749 0.491522
vt 0.161574 0.445745
vt 0.211383 0.517711
vt 0.221237 0.466041
vt 0.291610 0.518310
vt 0.392888 0.760286
vt 0.392888 0.826407
vt 0.382190 0.826370
vt 0.284360 0.466047
vt 0.368068 0.493158
vt 0.344427 0.445741
vt 0.620186 0.784699
vt 0.620186 0.850820
vt 0.610023 0.788040
vt 0.383290 0.827915
vt 0.383290 0.891835
vt 0.376903 0.891191
vt 0.486437 0.772719
vt 0.552558 0.772493
vt 0.552558 0.783191
vt 0.291443 0.784699
vt 0.291443 0.850820
vt 0.281279 0.788040
vt 0.519944 0.784699
vt 0.519944 0.850820
vt 0.509781 0.788040
vt 0.428973 0.784699
vt 0.428973 0.850820
vt 0.418809 0.788040
vt 0.359606 0.827915
vt 0.359606 0.894035
vt 0.349442 0.831256
vt 0.314786 0.784699
vt 0.314786 0.850820
vt 0.304622 0.788040
vt 0.247158 0.784699
vt 0.247158 0.850820
vt 0.236994 0.788040
vt 0.621694 0.772718
vt 0.687815 0.772493
vt 0.687815 0.783191
vt 0.405095 0.760286
vt 0.405095 0.826407
vt 0.394396 0.826370
vt 0.452316 0.784699
vt 0.452316 0.850820
vt 0.442152 0.788040
vt 0.631858 0.784699
vt 0.631858 0.850820
vt 0.621694 0.788040
vt 0.475659 0.784699
vt 0.475659 0.850820
vt 0.465495 0.788040
vt 0.440644 0.784699
vt 0.440644 0.850820
vt 0.430481 0.788040
vt 0.725498 0.827914
vt 0.725498 0.894035
vt 0.715334 0.831255
vt 0.554066 0.772719
vt 0.620186 0.772493
vt 0.620186 0.783191
vt 0.200471 0.784699
vt 0.200471 0.850820
vt 0.190308 0.788040
vt 0.552558 0.784699
vt 0.552558 0.850820
vt 0.542394 0.788040
vt 0.167858 0.784699
vt 0.167858 0.850820
vt 0.157694 0.788040
vt 0.417301 0.760286
vt 0.417301 0.826407
vt 0.406603 0.826370
vt 0.369983 0.639299
vt 0.737704 0.519818
vt 0.737704 0.758778
vt 0.856637 0.850226
vt 0.856637 0.914146
vt 0.850250 0.913502
vt 0.722446 0.465710
vt 0.786043 0.459291
vt 0.786043 0.465710
vt 0.196727 0.915925
vt 0.190308 0.852328
vt 0.196727 0.852328
vt 0.686439 0.784699
vt 0.686439 0.848620
vt 0.680052 0.847975
vt 0.260337 0.923852
vt 0.323934 0.917434
vt 0.323934 0.923853
vt 0.128663 0.828739
vt 0.128663 0.892659
vt 0.122276 0.892014
vt 0.610023 0.922164
vt 0.673620 0.915745
vt 0.673620 0.922164
vt 0.268099 0.784699
vt 0.268099 0.848620
vt 0.261713 0.847975
vt 0.610023 0.914237
vt 0.673620 0.907818
vt 0.673620 0.914237
vt 0.585172 0.850127
vt 0.585172 0.914048
vt 0.578785 0.913403
vt 0.406068 0.931470
vt 0.469664 0.925052
vt 0.469664 0.931471
vt 0.337236 0.925744
vt 0.400833 0.919325
vt 0.400833 0.925744
vt 0.412454 0.827915
vt 0.412454 0.891835
vt 0.406068 0.891190
vt 0.188799 0.784699
vt 0.188799 0.848620
vt 0.182413 0.847976
vt 0.406068 0.907689
vt 0.469665 0.901270
vt 0.469665 0.907689
vt 0.167858 0.915925
vt 0.161439 0.852328
vt 0.167858 0.852328
vt 0.610023 0.866674
vt 0.673620 0.860255
vt 0.673620 0.866674
vt 0.585172 0.784699
vt 0.585172 0.848619
vt 0.578785 0.847975
vt 0.804318 0.922317
vt 0.867915 0.915898
vt 0.867915 0.922317
vt 0.701085 0.827915
vt 0.701085 0.891835
vt 0.694698 0.891191
vt 0.418809 0.772719
vt 0.484929 0.772493
vt 0.484929 0.783191
vt 0.725498 0.760286
vt 0.725498 0.826407
vt 0.714799 0.826370
vt 0.134351 0.760512
vt 0.200471 0.760286
vt 0.200471 0.770985
vt 0.659646 0.455852
vt 0.649079 0.390581
vt 0.659646 0.388907
vt 0.554066 0.760512
vt 0.620186 0.760286
vt 0.620186 0.770985
vt 0.621694 0.760511
vt 0.687814 0.760286
vt 0.687814 0.770985
vt 0.303114 0.784699
vt 0.303114 0.850820
vt 0.292951 0.788040
vt 0.737704 0.827914
vt 0.737704 0.894035
vt 0.727541 0.831255
vt 0.269607 0.772719
vt 0.335728 0.772493
vt 0.335728 0.783191
vt 0.486437 0.760512
vt 0.552558 0.760286
vt 0.552558 0.770985
vt 0.683795 0.455851
vt 0.673229 0.390581
vt 0.683795 0.388907
vt 0.722446 0.491856
vt 0.788566 0.491631
vt 0.788566 0.502329
vt 0.737704 0.760286
vt 0.737704 0.826406
vt 0.727006 0.826370
vt 0.156186 0.784699
vt 0.156186 0.850820
vt 0.146022 0.788040
vt 0.713291 0.760286
vt 0.713291 0.826407
vt 0.702593 0.826370
vt 0.201979 0.772719
vt 0.268099 0.772493
vt 0.268099 0.783191
vt 0.745087 0.455852
vt 0.734520 0.390581
vt 0.745087 0.388907
vt 0.575901 0.784699
vt 0.575901 0.850820
vt 0.565737 0.788040
vt 0.655201 0.784699
vt 0.655201 0.850820
vt 0.645037 0.788040
vt 0.000754 0.639299
vt 0.368475 0.519818
vt 0.368475 0.758778
vt 0.223814 0.915925
vt 0.217395 0.852328
vt 0.223814 0.852328
vt 0.864532 0.850226
vt 0.864532 0.914146
vt 0.858145 0.913502
vt 0.337236 0.917817
vt 0.400833 0.911398
vt 0.400833 0.917817
vt 0.514180 0.388907
vt 0.511183 0.452821
vt 0.504701 0.452853
vt 0.610023 0.882528
vt 0.673620 0.876109
vt 0.673620 0.882528
vt 0.529347 0.921975
vt 0.592944 0.915556
vt 0.592944 0.921975
vt 0.804317 0.930244
vt 0.867913 0.923825
vt 0.867913 0.930244
vt 0.279771 0.915925
vt 0.273352 0.852328
vt 0.279771 0.852328
vt 0.188800 0.850128
vt 0.188800 0.914049
vt 0.182413 0.913404
vt 0.356269 0.760286
vt 0.356269 0.824207
vt 0.349882 0.823563
vt 0.314786 0.915925
vt 0.308367 0.852328
vt 0.314786 0.852328
vt 0.880321 0.850226
vt 0.880321 0.914147
vt 0.873934 0.913502
vt 0.610023 0.874601
vt 0.673620 0.868182
vt 0.673620 0.874601
vt 0.483554 0.784699
vt 0.483554 0.848620
vt 0.477167 0.847975
vt 0.739212 0.922317
vt 0.802809 0.915898
vt 0.802809 0.922317
vt 0.367500 0.827915
vt 0.367500 0.891835
vt 0.361114 0.891191
vt 0.686439 0.850128
vt 0.686439 0.914048
vt 0.680052 0.913403
vt 0.888248 0.913824
vt 0.881829 0.850226
vt 0.888248 0.850226
vt 0.268099 0.850128
vt 0.268099 0.914048
vt 0.261713 0.913403
vt 0.608515 0.850820
vt 0.598351 0.847479
vt 0.608515 0.784699
vt 0.805461 0.388907
vt 0.805461 0.455851
vt 0.794895 0.454178
vt 0.643529 0.850820
vt 0.633366 0.847479
vt 0.643529 0.784699
vt 0.671721 0.388907
vt 0.671721 0.455851
vt 0.661154 0.454178
vt 0.132843 0.760286
vt 0.132843 0.827231
vt 0.122276 0.825557
vt 0.647571 0.388907
vt 0.647571 0.455852
vt 0.637004 0.454178
vt 0.269608 0.770760
vt 0.335728 0.760286
vt 0.335728 0.770985
vt 0.368475 0.826407
vt 0.357777 0.760323
vt 0.368475 0.760286
vt 0.769237 0.388907
vt 0.769237 0.455852
vt 0.758670 0.454178
vt 0.508273 0.850820
vt 0.498109 0.847479
vt 0.508273 0.784699
vt 0.347399 0.894035
vt 0.337236 0.890695
vt 0.347399 0.827915
vt 0.733012 0.388907
vt 0.733012 0.455851
vt 0.722446 0.454178
vt 0.347934 0.826407
vt 0.337236 0.760323
vt 0.347934 0.760286
vt 0.380682 0.826407
vt 0.369983 0.760323
vt 0.380682 0.760286
vt 0.722446 0.489897
vt 0.788566 0.479425
vt 0.788566 0.490123
vt 0.781312 0.388907
vt 0.781312 0.455851
vt 0.770745 0.454177
vt 0.212143 0.850820
vt 0.201979 0.847479
vt 0.212143 0.784699
vt 0.722446 0.477690
vt 0.788566 0.467218
vt 0.788566 0.477917
vt 0.793387 0.388907
vt 0.793387 0.455851
vt 0.782820 0.454178
vt 0.201979 0.770759
vt 0.268099 0.760286
vt 0.268099 0.770985
vt 0.666872 0.850820
vt 0.656709 0.847479
vt 0.666872 0.784699
vt 0.842356 0.850226
vt 0.848742 0.850871
vt 0.842356 0.914146
vt 0.889756 0.850226
vt 0.896175 0.850226
vt 0.896175 0.913824
vt 0.708980 0.891835
vt 0.702593 0.891191
vt 0.708980 0.827915
vt 0.229067 0.852328
vt 0.235486 0.852328
vt 0.235486 0.915925
vt 0.335728 0.848620
vt 0.329341 0.847975
vt 0.335728 0.784699
vt 0.673620 0.891964
vt 0.673620 0.898383
vt 0.610023 0.898382
vt 0.483554 0.914048
vt 0.477167 0.913403
vt 0.483554 0.850128
vt 0.673619 0.923672
vt 0.673619 0.930091
vt 0.610023 0.930091
vt 0.469665 0.917125
vt 0.469665 0.923544
vt 0.406068 0.923544
vt 0.673620 0.899891
vt 0.673620 0.906310
vt 0.610023 0.906310
vt 0.527839 0.848620
vt 0.521452 0.847975
vt 0.527839 0.784699
vt 0.173110 0.852328
vt 0.179529 0.852328
vt 0.179529 0.915926
vt 0.320038 0.852328
vt 0.326458 0.852328
vt 0.326458 0.915925
vt 0.258829 0.850820
vt 0.248666 0.847479
vt 0.258829 0.784699
vt 0.326458 0.850820
vt 0.316294 0.847479
vt 0.326458 0.784699
vt 0.496601 0.850820
vt 0.486437 0.847479
vt 0.496601 0.784699
vt 0.404559 0.894035
vt 0.394396 0.890695
vt 0.404559 0.827915
vt 0.223814 0.850820
vt 0.213651 0.847480
vt 0.223814 0.784699
vt 0.235486 0.850820
vt 0.225322 0.847479
vt 0.235486 0.784699
vt 0.701085 0.826407
vt 0.690387 0.760323
vt 0.701085 0.760286
vt 0.418809 0.770759
vt 0.484929 0.760286
vt 0.484929 0.770985
vt 0.596843 0.850820
vt 0.586680 0.847479
vt 0.596843 0.784699
vt 0.540886 0.850820
vt 0.530723 0.847479
vt 0.540886 0.784699
vt 0.463987 0.850820
vt 0.453824 0.847479
vt 0.463987 0.784699
vt 0.279771 0.850820
vt 0.269607 0.847479
vt 0.279771 0.784699
vt 0.722446 0.514309
vt 0.788566 0.503837
vt 0.788566 0.514536
vt 0.144514 0.850820
vt 0.134351 0.847479
vt 0.144514 0.784699
vt 0.179529 0.850820
vt 0.169366 0.847479
vt 0.179529 0.784699
vt 0.757162 0.388907
vt 0.757162 0.455852
vt 0.746595 0.454178
vt 0.134351 0.782966
vt 0.200471 0.772493
vt 0.200471 0.783191
vt 0.520927 0.515258
vt 0.400833 0.895544
vt 0.400833 0.901963
vt 0.337236 0.901963
vt 0.400833 0.903471
vt 0.400833 0.909890
vt 0.337236 0.909890
vt 0.520927 0.389932
vt 0.802810 0.907971
vt 0.802810 0.914390
vt 0.739212 0.914390
vt 0.146022 0.852328
vt 0.152441 0.852328
vt 0.152442 0.915925
vt 0.802809 0.923825
vt 0.802809 0.930244
vt 0.739212 0.930244
vt 0.469665 0.909197
vt 0.469665 0.915616
vt 0.406068 0.915616
vt 0.527839 0.914048
vt 0.521452 0.913403
vt 0.527839 0.850128
vt 0.252410 0.852328
vt 0.258829 0.852328
vt 0.258829 0.915926
vt 0.134351 0.852328
vt 0.140770 0.852328
vt 0.140770 0.915926
vt 0.375395 0.891835
vt 0.369008 0.891191
vt 0.375395 0.827915
vt 0.291443 0.915925
vt 0.285024 0.915925
vt 0.285024 0.852328
vt 0.296695 0.852328
vt 0.303114 0.852328
vt 0.303114 0.915925
vt 0.392888 0.891835
vt 0.386501 0.891191
vt 0.392888 0.827915
vt 0.555298 0.514535
vt 0.545349 0.451721
vt 0.555298 0.388907
vt 0.919936 0.391646
vt 0.939589 0.331162
vt 0.939589 0.515728
vt 0.061515 0.816952
vt 0.090388 0.760286
vt 0.090388 0.999246
vt 0.709481 0.514536
vt 0.699532 0.451722
vt 0.709481 0.388907
vt 0.698024 0.514536
vt 0.688075 0.451721
vt 0.698024 0.388907
vt 0.993706 0.480181
vt 0.964834 0.423516
vt 0.993706 0.241222
vt 0.854946 0.515728
vt 0.835293 0.455244
vt 0.854946 0.331162
vt 0.601125 0.514535
vt 0.591177 0.451721
vt 0.601125 0.388907
vt 0.589669 0.514535
vt 0.579720 0.451721
vt 0.589669 0.388907
vt 0.532384 0.514535
vt 0.522435 0.451721
vt 0.532384 0.388907
vt 0.060007 0.999246
vt 0.031135 0.942580
vt 0.060007 0.760286
vt 0.897267 0.515728
vt 0.877615 0.455244
vt 0.897267 0.331162
vt 0.543841 0.514535
vt 0.533892 0.451721
vt 0.543841 0.388907
vt 0.889483 0.102390
vt 0.963326 0.000754
vt 0.963326 0.329653
vt 0.710989 0.074597
vt 0.812624 0.000754
vt 0.812624 0.387399
vt 0.842356 0.621454
vt 0.916198 0.519818
vt 0.916198 0.848718
vt 0.504701 0.074597
vt 0.606337 0.000754
vt 0.606337 0.387399
vt 0.335728 0.914048
vt 0.329341 0.913403
vt 0.335728 0.850128
vt 0.469665 0.893343
vt 0.469665 0.899762
vt 0.406068 0.899762
vt 0.673620 0.884036
vt 0.673620 0.890456
vt 0.610023 0.890456
vt 0.592944 0.923483
vt 0.592944 0.929902
vt 0.529347 0.929902
vt 0.198235 0.852328
vt 0.204654 0.852328
vt 0.204654 0.915926
vt 0.872426 0.914147
vt 0.866040 0.913502
vt 0.872426 0.850226
vt 0.905610 0.850226
vt 0.912030 0.850226
vt 0.912030 0.913824
vt 0.678544 0.850819
vt 0.668380 0.847479
vt 0.678544 0.784699
vt 0.564229 0.850820
vt 0.554066 0.847479
vt 0.564229 0.784699
vt 0.635496 0.514535
vt 0.625547 0.451721
vt 0.635496 0.388907
vt 0.898775 0.391646
vt 0.918428 0.331162
vt 0.918428 0.515728
vt 0.091896 0.816952
vt 0.120768 0.760286
vt 0.120768 0.999245
vt 0.612582 0.514535
vt 0.602634 0.451721
vt 0.612582 0.388907
vt 0.720937 0.514536
vt 0.710989 0.451722
vt 0.720938 0.388907
vt 0.029626 0.999246
vt 0.000754 0.942580
vt 0.029626 0.760286
vt 0.876107 0.515728
vt 0.856454 0.455244
vt 0.876107 0.331162
vt 0.624039 0.514535
vt 0.614090 0.451721
vt 0.624039 0.388907
vt 0.566755 0.514536
vt 0.556806 0.451721
vt 0.566755 0.388907
vt 0.578212 0.514536
vt 0.568263 0.451721
vt 0.578212 0.388907
vt 0.993706 0.239714
vt 0.964834 0.183048
vt 0.993706 0.000754
vt 0.833785 0.515729
vt 0.814132 0.455244
vt 0.833785 0.331162
vt 0.917706 0.621454
vt 0.991549 0.519818
vt 0.991549 0.848718
vt 0.739212 0.593661
vt 0.840848 0.519818
vt 0.840848 0.906463
vt 0.814132 0.102390
vt 0.887975 0.000754
vt 0.887975 0.329654
vt 0.607845 0.057636
vt 0.709481 0.017715
vt 0.709481 0.387399
vt 0.204654 0.917434
vt 0.204654 0.923853
vt 0.141056 0.923853
vt 0.209468 0.852328
vt 0.215887 0.852328
vt 0.215887 0.915926
vt 0.240739 0.852328
vt 0.247158 0.852328
vt 0.247158 0.915925
vt 0.673620 0.852328
vt 0.673620 0.858747
vt 0.610023 0.858747
vt 0.897683 0.850226
vt 0.904102 0.850226
vt 0.904102 0.913824
vn 0.9714 0.0139 0.2369
vn 0.8507 0.0095 0.5255
vn 0.6467 0.0042 0.7627
vn 0.3794 -0.0015 0.9252
vn 0.0750 -0.0070 0.9972
vn -0.2368 -0.0119 0.9715
vn -0.5254 -0.0156 0.8507
vn -0.7626 -0.0178 0.6467
vn -0.9251 -0.0182 0.3793
vn -0.9971 -0.0168 0.0749
vn -0.9714 -0.0139 -0.2369
vn -0.8507 -0.0095 -0.5255
vn -0.6467 -0.0042 -0.7627
vn -0.3794 0.0015 -0.9252
vn -0.0750 0.0070 -0.9972
vn 0.2368 0.0119 -0.9715
vn 0.5254 0.0156 -0.8507
vn 0.7626 0.0178 -0.6467
vn -0.0163 0.9998 0.0083
vn 0.9251 0.0182 -0.3793
vn 0.9971 0.0168 -0.0749
vn 0.0163 -0.9998 -0.0083
vn -0.8507 -0.0095 -0.5256
vn 0.8507 0.0095 0.5256
vn 0.9714 0.0138 0.2369
vn -0.9971 -0.0169 0.0749
vn 0.9971 0.0169 -0.0749
vn -0.9714 -0.0138 -0.2369
usemtl Material.001
s 1
f 1/1/1 2/2/1 3/3/1
f 4/4/2 5/5/2 2/2/2
f 6/6/3 7/7/3 5/5/3
f 8/8/4 9/9/4 7/7/4
f 10/10/5 11/11/5 9/9/5
f 12/12/6 13/13/6 11/11/6
f 14/14/7 15/15/7 13/13/7
f 16/16/8 17/17/8 15/15/8
f 18/18/9 19/19/9 17/17/9
f 20/20/10 21/21/10 19/19/10
f 22/22/11 23/23/11 21/21/11
f 24/24/12 25/25/12 23/23/12
f 26/26/13 27/27/13 25/25/13
f 28/28/14 29/29/14 27/27/14
f 30/30/15 31/31/15 29/29/15
f 32/32/16 33/33/16 31/31/16
f 34/34/17 35/35/17 33/33/17
f 36/36/18 37/37/18 35/35/18
f 12/38/19 38/39/19 14/40/19
f 39/41/20 40/42/20 37/37/20
f 41/43/21 3/3/21 40/42/21
f 21/44/22 42/45/22 43/46/22
f 44/47/20 45/48/20 46/49/20
f 22/50/19 47/51/19 24/52/19
f 34/53/19 48/54/19 49/55/19
f 10/56/19 50/57/19 51/58/19
f 20/59/19 44/60/19 46/61/19
f 30/62/19 52/63/19 53/64/19
f 41/65/19 54/66/19 55/67/19
f 6/68/19 56/69/19 57/70/19
f 14/71/19 58/72/19 16/73/19
f 24/74/19 59/75/19 26/76/19
f 36/77/19 49/78/19 60/79/19
f 12/80/19 51/81/19 61/82/19
f 22/83/19 46/84/19 62/85/19
f 32/86/19 53/87/19 48/88/19
f 1/89/19 55/90/19 63/91/19
f 6/92/19 50/93/19 8/94/19
f 18/95/19 58/96/19 44/97/19
f 4/98/19 63/99/19 56/100/19
f 28/101/19 59/102/19 52/103/19
f 36/104/19 54/105/19 39/106/19
f 64/107/19 65/108/19 66/109/19
f 56/110/23 66/111/23 57/112/23
f 49/113/7 67/114/7 60/115/7
f 46/116/21 68/117/21 62/118/21
f 57/119/13 69/120/13 50/121/13
f 60/122/8 70/123/8 54/124/8
f 62/125/1 71/126/1 47/127/1
f 50/128/14 72/129/14 51/130/14
f 54/131/9 73/132/9 55/133/9
f 47/134/24 74/135/24 59/136/24
f 51/137/15 75/138/15 61/139/15
f 55/140/10 76/141/10 63/142/10
f 59/143/3 77/144/3 52/145/3
f 61/146/16 65/147/16 38/148/16
f 52/149/4 64/150/4 53/151/4
f 38/152/17 78/153/17 58/154/17
f 53/155/5 79/156/5 48/157/5
f 58/158/18 80/159/18 44/160/18
f 63/161/11 81/162/11 56/163/11
f 48/164/6 82/165/6 49/166/6
f 83/167/13 84/168/13 85/169/13
f 33/170/22 86/171/22 31/172/22
f 9/173/22 83/174/22 7/175/22
f 19/176/22 87/177/22 17/178/22
f 29/179/22 88/180/22 27/181/22
f 40/182/22 89/183/22 37/184/22
f 5/185/22 90/186/22 2/187/22
f 13/188/22 91/189/22 92/190/22
f 23/191/22 93/192/22 42/193/22
f 35/194/22 94/195/22 33/196/22
f 11/197/22 95/198/22 9/199/22
f 21/200/22 96/201/22 19/202/22
f 31/203/22 97/204/22 29/205/22
f 3/206/22 98/207/22 40/208/22
f 5/209/22 83/210/22 85/211/22
f 17/212/22 91/213/22 15/214/22
f 2/215/22 99/216/22 3/217/22
f 27/218/22 93/219/22 25/220/22
f 35/221/22 89/222/22 100/223/22
f 11/224/22 92/225/22 101/226/22
f 102/227/22 103/228/22 104/229/22
f 89/230/8 105/231/8 100/232/8
f 42/233/25 106/234/1 43/235/1
f 95/236/14 107/237/14 83/238/14
f 98/239/9 108/240/9 89/241/9
f 93/242/24 109/243/24 42/244/24
f 101/245/15 110/246/15 95/247/15
f 99/248/26 104/249/10 98/250/10
f 88/251/3 111/252/3 93/253/3
f 92/254/16 112/255/16 101/256/16
f 97/257/4 113/258/4 88/259/4
f 91/260/17 114/261/17 92/262/17
f 86/263/5 115/264/5 97/265/5
f 87/266/18 102/267/18 91/268/18
f 90/269/11 116/270/11 99/271/11
f 94/272/6 103/273/6 86/274/6
f 96/275/20 117/276/20 87/277/20
f 85/278/23 118/279/23 90/280/23
f 100/281/7 119/282/7 94/283/7
f 43/284/27 120/285/27 96/286/27
f 4/4/2 6/6/2 5/5/2
f 6/6/3 8/8/3 7/7/3
f 8/8/4 10/10/4 9/9/4
f 10/10/5 12/12/5 11/11/5
f 12/12/6 14/14/6 13/13/6
f 14/14/7 16/16/7 15/15/7
f 16/16/8 18/18/8 17/17/8
f 18/18/9 20/20/9 19/19/9
f 20/20/10 22/22/10 21/21/10
f 22/22/11 24/24/11 23/23/11
f 24/24/12 26/26/12 25/25/12
f 26/26/13 28/28/13 27/27/13
f 28/28/14 30/30/14 29/29/14
f 30/30/15 32/32/15 31/31/15
f 32/32/16 34/34/16 33/33/16
f 34/34/17 36/36/17 35/35/17
f 36/36/18 39/41/18 37/37/18
f 12/287/19 61/288/19 38/289/19
f 39/41/20 41/43/20 40/42/20
f 21/290/22 23/291/22 42/292/22
f 22/293/19 62/294/19 47/295/19
f 34/296/19 32/297/19 48/298/19
f 10/299/19 8/300/19 50/301/19
f 20/302/19 18/303/19 44/304/19
f 30/305/19 28/306/19 52/307/19
f 41/308/19 39/309/19 54/310/19
f 6/311/19 4/312/19 56/313/19
f 14/314/19 38/315/19 58/316/19
f 24/317/19 47/318/19 59/319/19
f 36/320/19 34/321/19 49/322/19
f 12/323/19 10/324/19 51/325/19
f 22/326/19 20/327/19 46/328/19
f 32/329/19 30/330/19 53/331/19
f 1/332/19 41/333/19 55/334/19
f 6/335/19 57/336/19 50/337/19
f 18/338/19 16/339/19 58/340/19
f 4/341/19 1/342/19 63/343/19
f 28/344/19 26/345/19 59/346/19
f 36/347/19 60/348/19 54/349/19
f 56/350/23 81/351/23 66/352/23
f 49/353/7 82/354/7 67/355/7
f 57/356/13 66/357/13 69/358/13
f 60/359/8 67/360/8 70/361/8
f 50/362/14 69/363/14 72/364/14
f 54/365/9 70/366/9 73/367/9
f 51/368/15 72/369/15 75/370/15
f 55/371/10 73/372/10 76/373/10
f 61/374/16 75/375/16 65/376/16
f 38/377/17 65/378/17 78/379/17
f 58/380/18 78/381/18 80/382/18
f 63/383/11 76/384/11 81/385/11
f 83/386/13 107/387/13 84/388/13
f 33/389/22 94/390/22 86/391/22
f 9/392/22 95/393/22 83/394/22
f 19/395/22 96/396/22 87/397/22
f 29/398/22 97/399/22 88/400/22
f 40/401/22 98/402/22 89/403/22
f 5/404/22 85/405/22 90/406/22
f 13/407/22 15/408/22 91/409/22
f 23/410/22 25/411/22 93/412/22
f 35/413/22 100/414/22 94/415/22
f 11/416/22 101/417/22 95/418/22
f 21/419/22 43/420/22 96/421/22
f 31/422/22 86/423/22 97/424/22
f 5/425/22 7/426/22 83/427/22
f 17/428/22 87/429/22 91/430/22
f 27/431/22 88/432/22 93/433/22
f 35/434/22 37/435/22 89/436/22
f 11/437/22 13/438/22 92/439/22
f 89/241/8 108/240/8 105/440/8
f 42/441/25 109/442/25 106/443/1
f 95/444/14 110/445/14 107/446/14
f 98/239/9 104/447/9 108/240/9
f 93/448/24 111/449/24 109/450/24
f 101/451/15 112/452/15 110/453/15
f 99/454/26 116/455/26 104/456/10
f 92/457/16 114/458/16 112/459/16
f 91/460/17 102/461/17 114/462/17
f 87/463/18 117/464/18 102/465/18
f 90/466/11 118/467/28 116/468/11
f 96/469/20 120/470/20 117/471/20
f 85/472/23 84/473/23 118/474/23
f 43/475/27 106/476/27 120/477/27
f 1/1/1 4/4/1 2/2/1
f 41/43/21 1/1/21 3/3/21
f 44/478/20 80/479/20 45/480/20
f 66/481/19 81/482/19 76/483/19
f 76/484/19 73/485/19 66/486/19
f 73/487/19 70/488/19 66/489/19
f 70/490/19 67/491/19 82/492/19
f 82/493/19 79/494/19 64/495/19
f 64/496/19 77/497/19 68/498/19
f 77/499/19 74/500/19 68/501/19
f 74/502/19 71/503/19 68/504/19
f 68/505/19 45/506/19 80/507/19
f 80/508/19 78/509/19 65/510/19
f 65/511/19 75/512/19 66/513/19
f 75/514/19 72/515/19 66/516/19
f 72/517/19 69/518/19 66/519/19
f 70/520/19 82/521/19 66/522/19
f 82/523/19 64/524/19 66/525/19
f 68/526/19 80/527/19 64/528/19
f 80/529/19 65/530/19 64/531/19
f 46/532/21 45/533/21 68/534/21
f 62/535/1 68/536/1 71/537/1
f 47/538/24 71/539/24 74/540/24
f 59/541/3 74/542/3 77/543/3
f 52/544/4 77/545/4 64/546/4
f 53/547/5 64/548/5 79/549/5
f 48/550/6 79/551/6 82/552/6
f 3/553/22 99/554/22 98/555/22
f 2/556/22 90/557/22 99/558/22
f 104/559/22 116/560/22 118/561/22
f 118/562/22 84/563/22 104/564/22
f 84/565/22 107/566/22 104/567/22
f 107/568/22 110/569/22 112/570/22
f 112/571/22 114/572/22 102/573/22
f 102/574/22 117/575/22 109/576/22
f 117/577/22 120/578/22 109/579/22
f 120/580/22 106/581/22 109/582/22
f 109/583/22 111/584/22 113/585/22
f 113/586/22 115/587/22 103/588/22
f 103/589/22 119/590/22 104/591/22
f 119/592/22 105/593/22 104/594/22
f 105/440/22 108/240/22 104/447/22
f 107/595/22 112/596/22 104/597/22
f 112/598/22 102/599/22 104/600/22
f 109/601/22 113/602/22 102/603/22
f 113/604/22 103/605/22 102/606/22
f 88/607/3 113/608/3 111/609/3
f 97/610/4 115/611/4 113/612/4
f 86/613/5 103/614/5 115/615/5
f 94/616/6 119/617/6 103/618/6
f 100/619/7 105/620/7 119/621/7
